<?xml version="1.0" encoding="utf-8"?>
<!-- Generator: Adobe Illustrator 22.0.0, SVG Export Plug-In . SVG Version: 6.00 Build 0)  -->
<svg version="1.1" id="Capa_1" xmlns="http://www.w3.org/2000/svg" xmlns:xlink="http://www.w3.org/1999/xlink" x="0px" y="0px"
	 viewBox="0 0 782 342.5" style="enable-background:new 0 0 782 342.5;" xml:space="preserve">
<style type="text/css">
	.st0{fill:#FCE900;}
	.st1{fill:#005F00;}
	.st2{fill:#59A227;}
	.st3{fill:#FEC100;}
	.st4{fill:#FFFFFF;}
	.st5{fill:#FD2D3F;}
	.st6{fill:#7B3885;}
</style>
<path class="st0" d="M250,261.1c22.8-11.5,58.2-60.3,60.4-105.9s-19.7-90.1-63.9-110.7s-44.5,1-41.6,9.1s63.7,89.3,54.4,121.5
	C250.1,207.4,250,261.1,250,261.1z"/>
<path class="st1" d="M54,102.7c7.5-37.9,54.3-60.2,88.1-65.1s37.4,6.5,33,10.7C170.8,52.6,54,102.7,54,102.7z"/>
<path class="st1" d="M77.2,70.1C44.6,89.8,32.1,116.5,31,150.6s5.5,36.4,9.2,31.6C44,177.4,77.2,70.1,77.2,70.1z"/>
<path class="st2" d="M60,109.8c-19,17-40.8,73.2-31.3,117.8s42.1,82,90.1,90.7c51.2,9.4,47.3-20.5,39.3-21.7
	c-8.6-1.3-85.9-67.8-85.2-101.3S60,109.8,60,109.8z"/>
<path class="st3" d="M291.3,213.6c3.6,38.4-34.9,73.2-65.9,87.5c-31,14.3-37.7,4.4-34.7-0.9C193.6,295,291.3,213.6,291.3,213.6z"/>
<path class="st3" d="M271.7,249.8c28.6-25.1,36.3-53.5,31.4-87.3s-11.8-34.8-14.6-29.5C285.6,138.4,271.7,249.8,271.7,249.8z"/>
<path class="st1" d="M89.1,12.1c1.6,16.7-1.9,39.9-12.4,55.4c-12.5,18.6-4.5-6.8-3-11c4.4-12.6-11.4-14.6-18.4-8.4
	c-7.9,7-2.7,15.7-1.6,26c0.4,3.1-2.1,3.9-3.5,1.8c-9-14-11.4-18.1-7.2-29.6c9.6-26.8-2.7-28.5-8.8-11.5
	c-17.6,49.1,35,90.6,72.1,100.7l17.9-34.9c-19.9-14.4-24.7-43.2-21.8-68.2C105.6,3.8,86.7-12.6,89.1,12.1"/>
<path class="st3" d="M327.9,166.5c-12.5,11.2-25.6,30.7-28.4,49.2c-3.3,22.2,7.9-1.9,9.7-6.1c5.3-12.2,18.3-3,19.2,6.2
	c1.1,10.5-8.6,13.4-16.4,20.2c-2.4,2-1.1,4.3,1.4,3.7c16.1-4.3,20.6-5.7,25.4-17c11-26.3,21.2-19.1,14.3-2.5
	c-20.2,48.1-87,43.1-121.2,25.4l10.4-37.8c24.4,2.8,47.4-15.1,62.2-35.5C321.4,149.2,346.3,149.9,327.9,166.5"/>
<g>
	<g>
		
			<image style="overflow:visible;" width="257" height="257" xlink:href="DFC56108.png"  transform="matrix(1 0 0 1 41.9933 45.6001)">
		</image>
	</g>
	<g id="Logotipo_19_">
		<g>
			<path class="st4" d="M230.9,242.8l-117.8,2.3l-0.5-24.5l5.8-0.1c2.4,0,5.5-3.7,5.5-5.9l-1.6-78.1c0-2.2-3.3-5.5-5.7-5.5l-5.8,0.1
				l-0.5-25.5l73.7-1.5l0.5,25.5l-15.8,0.3l1.7,87.2l27.5-0.5l3.3-24.8l28.5-0.6L230.9,242.8z"/>
		</g>
	</g>
	<path class="st4" d="M260.4,153.4c0.3,1.3-1.8,2.7-3.5,4.2c-1.5,1.4-2.3,1.6-1.2,3.2c1,1.6,4.4,4.9,3.8,5.9c-0.6,1-3.8-0.8-6.5-2.1
		c-2.7-1.3-3.3,2.3-4.8,3.9c-1.5,1.6-2.8,1.5-3.2-0.7c-0.5-2.2,0.6-3.5,0.5-5.4c-0.1-1.8-0.8-1.2-2.8-2.1c-1.9-0.9-4.2-2.5-3.6-3.5
		c0.6-1,2.1-0.6,5.7-1.2c1.1-0.2,2.1-2.1,2-5.1c-0.1-3,1.8-4,2.3-2.3c0.5,1.7,1.4,4.8,2.6,5.6c1.2,0.7,1.7,0.2,4.4-0.7
		C258.7,152.3,260.2,152.8,260.4,153.4 M240.9,115.7c3.2-3.5,2.5-9.7,4.7-8.9c2.6,1,2.4,3.9,3.3,7.1c0.5,1.8,1.6,2.8,4.3,3
		c2.8,0.2,3.7,0.5,4.6,1c1.4,0.8-0.8,2-4,3c-2.5,0.8-3.9,1.2-3.1,4.4c0.8,3.2,2.3,5.8,2,7.9c-0.3,2.2-2.3-0.1-4-2.8
		c-1.8-2.9-3.5-4.9-4.8-3.9c-3.3,2.4-3.3,4.1-5.1,4.7c-1.4,0.5-2.2-0.2-1.7-2.2c1-4,3.7-5.4,0.9-7.5c-2.6-2-4.8-2.2-5.9-4.8
		C231.1,114.1,239.2,117.6,240.9,115.7 M203,142c0.9-1,2.6-0.3,6.8-0.2c1.3,0,2.9-2,3.5-5.5c0.6-3.6,3-4.2,3.2-2.1
		c0.2,2.1,0.6,5.9,1.8,7c1.2,1.1,2,0.6,5.3,0.2c3-0.4,4.8,0.6,4.8,1.3c0,1.6-2.7,2.7-5,4.1c-2.1,1.3-3,1.4-2.1,3.5
		c0.8,2.1,4.1,6.7,3.2,7.7c-0.9,1-4.2-1.8-7-3.9c-2.8-2.1-4.3,2-6.4,3.5c-2,1.5-3.5,1.1-3.6-1.6c-0.1-2.7,1.5-4,1.7-6.1
		c0.3-2.1-0.7-1.5-2.8-3C204.4,145.3,202.1,143,203,142"/>
</g>
<path class="st3" d="M186.2,329.1c3.6-2,6.3-1.9,8-4.9c1.8-3.1-8.7,0-10.6-2.6c-3.4-4.8-1.5-12.3-4.3-11.6c-3.3,0.8-3.5,4.4-5.2,8.2
	c-0.9,2.1-2.4,3.2-5.8,3c-3.4-0.2-4.6,0-5.8,0.5c-1.8,0.7,0.7,2.5,4.4,4.4c2.9,1.4,4.6,2.1,3.1,5.9c-1.5,3.7-3.7,6.7-3.7,9.4
	c0,2.7,2.8,0.2,5.3-2.8c2.7-3.3,5-5.4,6.5-4c3.6,3.5,3.4,5.5,5.5,6.5c1.7,0.8,2.7,0.2,2.4-2.5C185.5,333.4,182.5,331.2,186.2,329.1"
	/>
<path class="st5" d="M130.2,342.1c6.3-0.6,6.1-3.5,0.1-4c-12.1-1.4-27.9-5.6-42.4-12.6c-14.6-6.9-27.5-16.9-36.3-25.6
	c-2.3-2.1-4.2-4.3-5.9-6.3c-0.9-1-1.7-1.9-2.5-2.8c-0.7-0.9-1.4-1.8-2-2.6c-1.3-1.6-2.3-2.9-3.2-3.9c-0.8-1-1.3-1.8-1.7-2.2
	c-1.3-1.6-2.9-2.9-4.5-3.9c-1.6-1.1-3.3-1.9-5.1-2.4c-3.5-1-7.3-0.7-10.3,1.2c-3,1.9-4.7,5.2-4.7,9.3c0,2,0.3,4.2,1.1,6.3
	c0.9,2.1,2.1,4.2,3.7,6.2c0.4,0.5,1.1,1.4,2.3,2.5c1.2,1.1,2.7,2.5,4.5,4.1c0.9,0.8,1.9,1.7,2.9,2.6c1.1,0.9,2.3,1.8,3.5,2.7
	c2.5,1.9,5.1,4.1,8.2,6c12,8.2,28.5,16.5,45.6,20.8C100.5,342.1,117.7,343.1,130.2,342.1"/>
<path class="st3" d="M25.6,250.9c-2.4-5.8-3.9-12.1-5-17.1c-1-5-1.7-8.8-2-9.7c-1.2-3.4-6.3-4.8-11.3-3.1c-5.1,1.7-8.2,6-7,9.5
	c0.3,0.9,2.2,4.5,5.1,9.4c2.9,4.9,7.1,11,12,16.3c4.9,5.3,10.5,9.6,15,12c2.2,1.2,4.2,2.1,5.5,2.6c1.4,0.5,1.5,0.2,0.4-0.7
	c-1.1-1-2.5-2.4-4.1-4.2C31.2,262.2,27.9,256.8,25.6,250.9"/>
<path class="st6" d="M215.3,23.6c-6.3,0.6-6.1,3.5-0.1,4c12.1,1.4,27.9,5.6,42.4,12.6c14.6,6.9,27.5,16.9,36.3,25.6
	c2.3,2.1,4.2,4.3,5.9,6.3c0.9,1,1.7,1.9,2.5,2.8c0.7,0.9,1.4,1.8,2,2.6c1.3,1.6,2.3,2.9,3.2,3.9c0.8,1,1.3,1.8,1.7,2.2
	c1.3,1.6,2.9,2.9,4.5,3.9c1.6,1.1,3.3,1.9,5.1,2.4c3.5,1,7.3,0.7,10.3-1.2c3-1.9,4.7-5.2,4.7-9.3c0-2-0.3-4.2-1.1-6.3
	c-0.9-2.1-2.1-4.2-3.7-6.2c-0.4-0.5-1.1-1.4-2.3-2.5c-1.2-1.1-2.7-2.5-4.5-4.1c-0.9-0.8-1.9-1.7-2.9-2.6c-1.1-0.9-2.3-1.8-3.5-2.7
	c-2.5-1.9-5.1-4.1-8.2-6c-12-8.2-28.5-16.5-45.6-20.8C244.9,23.6,227.7,22.5,215.3,23.6"/>
<path class="st2" d="M316.5,115.4c1.7,6.1,2.6,12.5,3.1,17.6c0.5,5.1,0.7,9,0.9,9.8c0.8,3.5,5.7,5.5,10.9,4.3c5.2-1.2,8.8-5,8-8.7
	c-0.2-0.9-1.7-4.7-4.1-9.9c-2.4-5.2-5.8-11.7-10.2-17.5c-4.3-5.8-9.4-10.7-13.6-13.6c-2.1-1.5-3.9-2.5-5.2-3.2
	c-1.3-0.6-1.5-0.4-0.5,0.7c0.9,1.1,2.2,2.6,3.6,4.6C312.1,103.5,314.9,109.3,316.5,115.4"/>
<g>
	<path class="st4" d="M441.9,123.6c0,0.9-0.1,1.8-0.3,2.7c-0.2,1-0.5,1.8-1,2.7s-1,1.5-1.8,2.1c-0.7,0.5-1.6,0.8-2.7,0.8
		c-1.6,0-2.8-0.3-3.6-0.9c-0.8-0.6-1.3-1.3-1.6-2.2c-0.3-0.9-0.5-1.8-0.5-2.8c0-1-0.1-1.9-0.1-2.8c0-0.9-0.2-1.6-0.4-2.2
		c-0.3-0.6-0.8-0.9-1.6-0.9c-0.9,0-1.7,0.3-2.4,1c-0.7,0.7-1.3,1.5-1.8,2.6c-0.5,1-0.9,2.2-1.3,3.6c-0.3,1.3-0.6,2.6-0.8,3.9
		c-0.2,1.3-0.4,2.5-0.4,3.7c-0.1,1.2-0.1,2.1-0.1,2.8c0,1,0,2.1,0.1,3.4c0.1,1.3,0.3,2.6,0.6,3.8c0.4,1.2,0.9,2.2,1.6,3.1
		c0.7,0.8,1.8,1.3,3.1,1.3c0.9,0,1.8-0.1,2.7-0.3c0.9-0.2,1.7-0.5,2.6-0.8c0.9-0.3,1.7-0.6,2.6-0.8c0.9-0.2,1.8-0.3,2.7-0.3
		c1,0,1.9,0.4,2.6,1.3c0.7,0.8,1,1.8,1,2.8c0,1.5-0.5,2.8-1.4,4.1c-0.9,1.3-2,2.4-3.4,3.3c-1.3,1-2.8,1.7-4.4,2.3
		c-1.6,0.5-3,0.8-4.3,0.8c-3.3,0-6.1-0.7-8.3-2.2c-2.3-1.5-4.1-3.4-5.5-5.7c-1.4-2.3-2.4-5-3-7.9c-0.6-2.9-0.9-5.8-0.9-8.6
		c0-1.9,0.2-4,0.5-6.3c0.4-2.3,0.9-4.6,1.6-6.9c0.7-2.3,1.7-4.5,2.8-6.7c1.1-2.1,2.4-4,3.9-5.7c1.5-1.6,3.2-3,5.1-4
		c1.9-1,4-1.5,6.3-1.5c2.2,0,4.1,0.6,5.6,1.7c1.5,1.1,2.7,2.5,3.6,4.2c0.9,1.7,1.5,3.6,1.9,5.6C441.7,119.9,441.9,121.8,441.9,123.6
		z"/>
	<path class="st4" d="M457.6,160.4c-2.3,0-4.4-0.6-6.1-1.8s-3.2-2.8-4.4-4.7c-1.2-1.9-2.1-4-2.7-6.4c-0.6-2.3-0.9-4.7-0.9-6.9
		c0-2.4,0.3-4.9,0.9-7.5c0.6-2.6,1.5-4.9,2.7-7c1.2-2.1,2.8-3.9,4.7-5.2c1.9-1.3,4.2-2,6.8-2c2.6,0,4.7,0.7,6.5,2.1
		c1.8,1.4,3.2,3.1,4.3,5.2c1.1,2.1,1.9,4.3,2.3,6.8c0.5,2.5,0.6,4.8,0.5,7c-0.1,2.4-0.5,4.9-1.1,7.3s-1.5,4.7-2.7,6.6
		c-1.2,2-2.7,3.6-4.5,4.8C462.3,159.8,460.1,160.4,457.6,160.4z M458.3,129.5c-0.7,0-1.3,0.4-1.8,1.1c-0.5,0.7-1,1.6-1.3,2.7
		c-0.3,1-0.6,2.2-0.8,3.3c-0.2,1.2-0.3,2.2-0.3,3c0,1.1,0.1,2.3,0.3,3.6c0.2,1.3,0.5,2.5,0.9,3.5c0.4,1.1,0.8,2,1.3,2.7
		c0.5,0.7,1.1,1.1,1.8,1.1c0.7,0,1.4-0.3,1.9-1c0.5-0.7,0.9-1.5,1.3-2.6c0.3-1,0.5-2.2,0.7-3.5c0.1-1.3,0.2-2.4,0.2-3.5
		c0-1-0.1-2.1-0.3-3.3c-0.2-1.2-0.4-2.3-0.8-3.4c-0.3-1-0.8-1.9-1.3-2.6C459.6,129.8,459,129.5,458.3,129.5z"/>
	<path class="st4" d="M507.3,138c0,2-0.2,4.2-0.6,6.6c-0.4,2.4-1.2,4.6-2.2,6.7c-1,2.1-2.4,3.8-4,5.1s-3.8,2.1-6.3,2.1
		c-0.6,0-1.3,0-2-0.1s-1.3-0.3-1.9-0.5c-0.6-0.2-1.2-0.5-1.7-0.9c-0.5-0.4-0.9-0.9-1.2-1.5l-0.6,9.8c0,1-0.1,2.3-0.1,3.8
		c0,1.5-0.2,2.8-0.5,4.2c-0.3,1.3-0.9,2.4-1.7,3.4c-0.8,0.9-1.9,1.4-3.5,1.4c-0.9,0-1.6-0.4-2.2-1.3c-0.6-0.9-1.1-2-1.4-3.4
		c-0.3-1.4-0.6-2.9-0.8-4.6c-0.2-1.7-0.3-3.3-0.3-4.9c0-1.5-0.1-3-0.1-4.2c0-1.3,0-2.2,0-2.8c0-3.1,0-6.1-0.1-9.1
		c0-3-0.1-6.1-0.1-9.1c0-0.5,0-1.4,0-2.6c0-1.2,0-2.4,0.1-3.8c0.1-1.4,0.2-2.8,0.4-4.2c0.2-1.5,0.5-2.8,0.9-4
		c0.4-1.2,0.9-2.2,1.6-2.9c0.6-0.8,1.4-1.1,2.3-1.1c0.6,0,1.1,0.2,1.6,0.5c0.5,0.3,0.9,0.8,1.2,1.3c0.3,0.5,0.6,1.1,0.9,1.7
		c0.2,0.6,0.4,1.1,0.5,1.6c1.4-1.6,3-2.8,4.9-3.6c1.8-0.8,3.8-1.2,5.9-1.2c2.2,0,4,0.6,5.4,1.8c1.4,1.2,2.5,2.8,3.3,4.6
		c0.8,1.8,1.4,3.8,1.7,5.8C507.1,134.5,507.3,136.4,507.3,138z M497.5,137.5c0-0.7-0.1-1.4-0.2-2.1c-0.1-0.7-0.3-1.4-0.6-2
		c-0.3-0.6-0.7-1.1-1.3-1.5c-0.5-0.4-1.2-0.6-2.1-0.6c-1.1,0-2.2,0.4-3.5,1.1c-1.2,0.7-2.1,1.5-2.7,2.4c-0.2,0.4-0.4,1-0.4,1.8
		c0,0.8-0.1,1.4-0.1,1.8c0,0.3,0,0.7,0,1.3c0,0.5,0.1,1.1,0.1,1.6c0,0.5,0.1,1.1,0.2,1.6c0.1,0.5,0.2,0.9,0.3,1.2
		c0.1,0.4,0.4,0.8,0.9,1.1c0.5,0.3,1,0.6,1.5,0.9s1.1,0.5,1.7,0.6c0.6,0.1,1.1,0.2,1.5,0.2c1,0,1.7-0.4,2.3-1.1
		c0.6-0.7,1.1-1.6,1.4-2.6c0.3-1,0.6-2,0.7-3.1C497.4,139.1,497.5,138.2,497.5,137.5z"/>
	<path class="st4" d="M540.5,148.8c0,0.8,0,1.9-0.1,3.2c-0.1,1.3-0.3,2.6-0.6,3.9c-0.3,1.3-0.8,2.3-1.5,3.2
		c-0.7,0.9-1.6,1.4-2.9,1.4c-1.7,0-3-0.5-3.9-1.6c-0.9-1.1-1.3-2.5-1.3-4.1c-1.5,1.3-3.1,2.3-5,3c-1.8,0.7-3.7,1.1-5.6,1.1
		c-1.3,0-2.6-0.3-3.8-1c-1.2-0.6-2.2-1.5-3.1-2.5c-0.9-1-1.6-2.1-2.2-3.4c-0.5-1.3-0.8-2.5-0.8-3.7c0-2.2,0.7-4.1,2-5.7
		c1.3-1.6,3-3,5-4.2c2-1.2,4-2.1,6.3-2.8c2.2-0.7,4.2-1.1,5.9-1.4c0-0.2,0-0.4,0-0.6c0-0.2,0-0.4,0-0.6c0-1.4-0.4-2.6-1.2-3.4
		c-0.8-0.9-1.9-1.3-3.3-1.3c-1.1,0-2.1,0.2-2.9,0.6c-0.8,0.4-1.6,0.8-2.3,1.3c-0.7,0.5-1.5,0.9-2.2,1.3c-0.7,0.4-1.5,0.6-2.5,0.6
		c-1,0-1.9-0.3-2.6-1c-0.7-0.6-1.1-1.5-1.1-2.5c0-1.5,0.4-2.9,1.3-4.1c0.9-1.2,2-2.3,3.4-3.1c1.3-0.8,2.8-1.5,4.4-2
		c1.6-0.5,3-0.7,4.3-0.7c1.2,0,2.5,0.1,3.7,0.4c1.2,0.3,2.4,0.8,3.5,1.4c1.1,0.6,2.1,1.4,3,2.3c0.9,0.9,1.6,1.9,2.2,3.1
		c0.8,1.7,1.5,3.5,2,5.4c0.5,1.9,0.9,3.8,1.2,5.8s0.5,4,0.5,5.9C540.5,145,540.5,146.9,540.5,148.8z M529.6,146.6l-0.2-4.6
		c-0.1,0-0.2,0-0.3,0c-0.1,0-0.2,0-0.3,0c-0.6,0-1.3,0.1-2.2,0.4c-0.9,0.3-1.7,0.7-2.6,1.2c-0.8,0.5-1.5,1.1-2.1,1.7
		c-0.6,0.6-0.9,1.3-0.9,2c0,0.6,0.2,1.1,0.7,1.3c0.5,0.2,1,0.3,1.6,0.3c1,0,2.1-0.3,3.2-0.8C527.7,147.6,528.7,147.1,529.6,146.6z"
		/>
	<path class="st4" d="M595.6,148.3c0,0.9-0.1,2-0.2,3.3c-0.2,1.3-0.5,2.5-0.9,3.7c-0.5,1.2-1.1,2.1-1.8,2.9
		c-0.8,0.8-1.8,1.2-3.1,1.2c-1.7,0-3-0.6-3.8-1.8c-0.8-1.2-1.4-2.7-1.8-4.4c-0.4-1.7-0.6-3.5-0.6-5.2s-0.1-3.2-0.2-4.2
		c-3.3,0.5-6.5,1-9.7,1.4c-0.1,1-0.3,2.3-0.6,3.9c-0.3,1.6-0.8,3-1.4,4.5c-0.6,1.4-1.4,2.7-2.4,3.7c-1,1-2.2,1.6-3.6,1.6
		c-1.1,0-1.9-0.4-2.6-1.2c-0.6-0.8-1.1-1.7-1.4-2.8c-0.3-1.1-0.5-2.2-0.6-3.4c-0.1-1.2-0.1-2.1-0.1-2.9c0-2.6,0.2-5.2,0.6-7.7
		c0.4-2.5,0.9-5,1.4-7.6c0.3-1.3,0.6-2.9,1.1-4.6c0.5-1.8,1-3.6,1.7-5.5c0.7-1.9,1.4-3.8,2.3-5.6c0.9-1.8,1.9-3.5,3-5
		c1.1-1.5,2.4-2.6,3.9-3.6c1.5-0.9,3.1-1.4,4.9-1.4c1.7,0,3.2,0.4,4.5,1.2c1.3,0.8,2.4,1.8,3.4,3.1c1,1.3,1.8,2.7,2.4,4.3
		c0.6,1.6,1.2,3.3,1.6,4.9c0.4,1.7,0.8,3.3,1.1,4.9c0.3,1.6,0.6,3,0.8,4.2c0.6,3,1.1,6,1.5,9C595.4,142.2,595.6,145.2,595.6,148.3z
		 M582.4,131.7c0-0.5,0-1.4-0.1-2.7c-0.1-1.3-0.2-2.5-0.4-3.8c-0.2-1.3-0.6-2.4-1.1-3.4c-0.5-1-1.1-1.5-1.9-1.5
		c-0.5,0-0.9,0.3-1.3,0.9c-0.4,0.6-0.8,1.4-1.1,2.3c-0.3,0.9-0.6,2-0.9,3.1c-0.3,1.1-0.5,2.2-0.7,3.3c-0.2,1-0.3,2-0.4,2.8
		c-0.1,0.8-0.2,1.4-0.2,1.8c2.7-0.2,5.4-0.6,8.1-1V131.7z"/>
	<path class="st4" d="M641.6,135.9c0,0.9,0,2,0,3.5c0,1.5,0,3.1-0.1,4.8c-0.1,1.7-0.2,3.5-0.4,5.2c-0.2,1.8-0.6,3.3-1.1,4.8
		c-0.5,1.4-1.1,2.6-1.8,3.5c-0.7,0.9-1.7,1.4-2.8,1.4c-1,0-1.8-0.4-2.3-1.3c-0.5-0.8-0.9-1.8-1.1-3c-0.2-1.1-0.4-2.3-0.4-3.5
		c0-1.2,0-2.1,0-2.8c0-2.1,0.1-4.1,0.2-6c0.1-2,0.2-4,0.2-6c0-0.2,0-0.6,0-1.2c0-0.6,0-1.2-0.1-1.8c-0.1-0.6-0.2-1.1-0.4-1.6
		c-0.2-0.5-0.5-0.7-0.9-0.7c-0.8,0-1.5,0.4-2,1.3c-0.5,0.8-0.9,1.8-1.2,3c-0.3,1.1-0.5,2.3-0.7,3.4c-0.1,1.1-0.2,1.9-0.3,2.5
		c-0.1,0.6-0.2,1.5-0.2,2.7c-0.1,1.2-0.2,2.5-0.3,3.9c-0.1,1.4-0.3,2.9-0.5,4.3c-0.3,1.5-0.6,2.8-1,4c-0.4,1.2-0.9,2.2-1.5,3
		c-0.6,0.8-1.3,1.2-2.2,1.2c-1.1,0-1.9-0.5-2.5-1.4c-0.6-1-1-2.1-1.3-3.4c-0.3-1.3-0.4-2.6-0.5-3.9c-0.1-1.3-0.1-2.3-0.1-3.1
		c0-0.8,0-1.5,0-2.3c0-0.7,0-1.5,0-2.3c0-0.3,0-0.8,0-1.6c0-0.7,0-1.5,0-2.4c0-0.9-0.1-1.8-0.1-2.8c-0.1-1-0.2-1.8-0.3-2.6
		c-0.1-0.8-0.3-1.4-0.6-1.9c-0.3-0.5-0.6-0.8-1-0.8c-0.6,0-1.1,0.4-1.6,1.1c-0.5,0.8-0.9,1.6-1.3,2.7c-0.4,1-0.7,2-0.9,3
		c-0.2,1-0.3,1.7-0.3,2.2v0.4c0,2.2,0.1,4.3,0.4,6.4c0.3,2.1,0.4,4.2,0.4,6.4c0,1.3-0.4,2.5-1.2,3.5c-0.8,1.1-2,1.6-3.4,1.6
		c-1,0-1.9-0.4-2.6-1.2c-0.7-0.8-1.3-1.8-1.7-3.1c-0.5-1.3-0.8-2.7-1.1-4.2c-0.3-1.5-0.4-3-0.5-4.5c-0.1-1.5-0.1-2.8-0.2-4
		c0-1.2,0-2.1,0-2.7c0-0.7,0-1.7,0-3c0-1.3,0-2.8,0.1-4.3c0.1-1.5,0.2-3.1,0.4-4.8c0.2-1.6,0.5-3.1,0.9-4.4c0.4-1.3,0.9-2.4,1.6-3.2
		c0.7-0.8,1.5-1.3,2.6-1.3c1.2,0,2.2,0.3,2.9,1c0.8,0.6,1.1,1.6,1.1,2.9c0,0.3,0,0.5,0,0.8c0,0.3-0.1,0.5-0.1,0.8
		c0.5-0.7,1.1-1.5,1.8-2.2c0.7-0.8,1.5-1.4,2.4-2.1c0.8-0.6,1.7-1.1,2.7-1.5c1-0.4,1.9-0.6,2.9-0.6c0.9,0,1.7,0.3,2.5,0.8
		c0.7,0.5,1.4,1.1,1.9,1.9c0.5,0.8,1,1.6,1.4,2.4c0.4,0.9,0.6,1.7,0.8,2.5c0.5-0.8,1-1.7,1.7-2.5c0.7-0.8,1.4-1.6,2.2-2.2
		c0.8-0.6,1.6-1.2,2.6-1.6c0.9-0.4,1.9-0.6,2.9-0.6c1,0,1.8,0.3,2.5,1c0.7,0.7,1.3,1.6,1.8,2.6c0.5,1.1,0.9,2.3,1.2,3.6
		c0.3,1.3,0.5,2.7,0.7,4c0.2,1.3,0.3,2.5,0.3,3.6C641.5,134.3,641.6,135.2,641.6,135.9z"/>
	<path class="st4" d="M674.7,146.2c0,1.6-0.5,3.1-1.5,4.5c-1,1.5-2.2,2.8-3.7,4c-1.5,1.2-3.1,2.1-4.8,2.8c-1.7,0.7-3.2,1.1-4.7,1.1
		c-2.4,0-4.6-0.6-6.5-1.8c-1.9-1.2-3.5-2.7-4.8-4.6c-1.3-1.9-2.2-3.9-2.9-6.2c-0.7-2.3-1-4.5-1-6.6c0-2.3,0.3-4.7,1-7.3
		c0.6-2.6,1.6-5,2.9-7.2c1.3-2.2,2.9-4,4.9-5.5c2-1.5,4.3-2.2,7.1-2.2c1.5,0,3,0.3,4.4,0.8c1.4,0.5,2.6,1.3,3.7,2.2
		c1,1,1.9,2.1,2.5,3.4c0.6,1.3,1,2.8,1,4.4c0,2.1-0.5,4.1-1.4,6c-0.9,1.9-2.1,3.5-3.6,4.9c-1.5,1.4-3.2,2.5-5.2,3.3
		c-2,0.8-4,1.3-6,1.4c0.2,1.3,0.7,2.3,1.6,2.9c0.9,0.6,1.9,0.9,3.2,0.9c0.9,0,1.8-0.2,2.7-0.7c0.9-0.5,1.7-1,2.5-1.5
		c0.8-0.6,1.6-1.1,2.4-1.5c0.8-0.5,1.6-0.7,2.4-0.7c0.9,0,1.7,0.3,2.5,0.9C674.4,144.5,674.7,145.3,674.7,146.2z M663.7,129.5
		c0-0.6-0.2-1.2-0.5-1.8c-0.3-0.6-0.8-1-1.5-1c-1,0-1.8,0.3-2.5,0.8c-0.7,0.5-1.3,1.2-1.7,2c-0.5,0.8-0.8,1.7-1.1,2.6
		c-0.3,0.9-0.4,1.8-0.4,2.5c0.6-0.1,1.4-0.3,2.3-0.5c0.9-0.2,1.7-0.5,2.5-0.9c0.8-0.4,1.5-0.9,2.1-1.5
		C663.4,131,663.7,130.3,663.7,129.5z M667.5,105.2c0,0.5-0.1,1-0.4,1.5s-0.6,0.9-1,1.3c-0.4,0.4-0.8,0.8-1.3,1.1
		c-0.5,0.3-0.9,0.6-1.2,0.9c-0.3,0.2-0.7,0.5-1.1,0.8c-0.4,0.3-0.8,0.6-1.2,0.8c-0.4,0.3-0.9,0.5-1.3,0.6c-0.4,0.2-0.9,0.3-1.3,0.3
		c-0.4,0-0.7-0.1-1-0.3s-0.4-0.5-0.4-0.9c0-0.7,0.3-1.5,0.8-2.5c0.5-1,1.2-1.9,1.9-2.9c0.8-0.9,1.6-1.7,2.5-2.4c0.9-0.7,1.7-1,2.4-1
		c0.6,0,1.2,0.3,1.7,0.8C667.2,103.9,667.5,104.5,667.5,105.2z"/>
	<path class="st4" d="M701.2,132.8c-0.6,0-1.2,0-1.6-0.2c-0.5-0.2-0.9-0.3-1.4-0.5c-0.4-0.2-0.8-0.4-1.2-0.5
		c-0.4-0.2-0.9-0.2-1.4-0.2c-0.9,0-1.7,0.3-2.4,0.8c-0.7,0.5-1.3,1-1.9,1.7c-0.6,0.7-1.1,1.4-1.5,2.3c-0.4,0.8-0.7,1.7-1,2.5
		c-0.1,0.5-0.2,1.4-0.3,2.5c-0.1,1.1-0.1,2.3-0.1,3.6c0,1.3-0.1,2.6-0.1,3.8c0,1.2,0,2.1-0.1,2.8c0,0.7-0.2,1.6-0.3,2.6
		c-0.2,1-0.5,1.9-0.9,2.8c-0.4,0.9-0.9,1.6-1.5,2.2c-0.6,0.6-1.5,0.9-2.5,0.9c-0.8,0-1.4-0.2-2-0.7c-0.6-0.5-1-1.1-1.4-1.8
		c-0.4-0.8-0.7-1.6-1-2.6c-0.3-1-0.4-2-0.6-3.1c-0.1-1.1-0.2-2.2-0.3-3.3c-0.1-1.1-0.1-2.1-0.1-3.1c0-1,0-1.9,0-2.7c0-0.8,0-1.5,0-2
		c0-1.6-0.1-3.2-0.2-4.8c-0.1-1.6-0.2-3.2-0.2-4.8c0-1,0-2.1,0.1-3.4c0.1-1.2,0.3-2.4,0.8-3.5c0.4-1.1,1-2,1.8-2.7
		c0.8-0.7,1.9-1.1,3.3-1.1c0.8,0,1.4,0.3,2,0.8c0.5,0.5,1,1.1,1.3,1.8c0.3,0.7,0.6,1.5,0.8,2.3c0.2,0.8,0.3,1.6,0.3,2.3
		c1.1-1.8,2.3-3.2,3.7-4.3c1.4-1.1,3.1-1.7,5.3-1.8c1.1,0,2.2,0.1,3.2,0.3c1.1,0.3,2.1,0.7,2.9,1.2c0.9,0.6,1.6,1.3,2.2,2.2
		c0.6,0.9,0.9,2,0.9,3.2c0.1,1.5-0.3,2.6-1.3,3.4C703.7,132.4,702.6,132.8,701.2,132.8z"/>
	<path class="st4" d="M718.8,133.9c0,0.6,0,1.3,0,2c0,0.7,0,1.4-0.1,2c0,0.8-0.1,1.8-0.1,3.1c0,1.3,0,2.7-0.1,4.2
		c-0.1,1.5-0.2,3-0.4,4.6c-0.2,1.6-0.5,3-1,4.2c-0.5,1.3-1.1,2.3-1.8,3.1c-0.8,0.8-1.7,1.2-2.8,1.3c-0.9,0-1.6-0.3-2.2-1
		c-0.6-0.7-1.1-1.7-1.5-2.8c-0.4-1.2-0.7-2.5-0.9-3.9c-0.2-1.4-0.3-2.8-0.4-4.2c-0.1-1.3-0.1-2.6-0.1-3.7c0-1.1,0-2,0-2.5
		c0-0.7,0-1.8,0-3.1c0-1.3,0-2.8,0.1-4.3c0.1-1.5,0.3-3.1,0.5-4.7c0.3-1.6,0.6-3.1,1.1-4.4c0.5-1.3,1.1-2.4,1.9-3.2
		c0.8-0.8,1.8-1.2,2.9-1.2c1.2,0,2.2,0.6,2.8,1.8c0.6,1.2,1.1,2.7,1.4,4.3c0.3,1.6,0.5,3.3,0.5,4.9
		C718.8,132,718.8,133.2,718.8,133.9z M718.3,110.7c0,0.6-0.2,1.2-0.5,1.7c-0.3,0.5-0.8,0.9-1.3,1.3c-0.5,0.4-1.1,0.7-1.8,0.9
		c-0.6,0.2-1.2,0.3-1.8,0.3c-0.9,0-1.7-0.2-2.4-0.7c-0.7-0.5-1-1.2-1-2.1c0-0.7,0.2-1.3,0.5-1.8c0.3-0.5,0.8-1,1.3-1.3
		c0.5-0.3,1.1-0.6,1.7-0.8c0.6-0.2,1.3-0.3,1.8-0.3c0.9,0,1.7,0.2,2.4,0.6C717.9,109,718.3,109.7,718.3,110.7z"/>
	<path class="st4" d="M749.1,132.2c0,0.2,0,0.5-0.1,0.7c0,0.3-0.1,0.5-0.2,0.7c-0.4,1-1,1.9-1.9,2.6c-0.9,0.7-1.9,1.1-3.1,1.1
		c-1.8,0-3-0.9-3.6-2.7c-0.1-0.2-0.1-0.5-0.1-0.8c0-0.3,0-0.6-0.1-0.9v-2c-0.1-0.6-0.3-1.1-0.5-1.5c-0.2-0.4-0.6-0.5-1.2-0.5
		c-0.8,0-1.5,0.5-2.2,1.5c-0.7,1-1.3,2.1-1.8,3.5c-0.5,1.3-0.9,2.7-1.3,4.1c-0.3,1.4-0.5,2.6-0.5,3.4c0,0.7,0,1.5,0.1,2.5
		c0.1,1,0.3,1.9,0.5,2.8c0.3,0.9,0.6,1.7,1.1,2.4c0.5,0.7,1.1,1,1.9,1c0.8,0,1.5-0.2,2.2-0.7c0.7-0.5,1.3-1,1.9-1.7
		c0.6-0.5,1.2-1.1,1.9-1.7c0.7-0.6,1.5-0.9,2.4-0.9c1.1,0,2,0.4,2.7,1.2c0.7,0.8,1,1.8,1,2.8c0,1.6-0.4,3-1.2,4.3
		c-0.8,1.3-1.8,2.5-3.1,3.5c-1.2,1-2.6,1.8-4.1,2.3c-1.5,0.6-2.9,0.9-4.3,0.9c-2.5,0-4.5-0.6-6.3-1.8c-1.7-1.2-3.1-2.8-4.1-4.7
		c-1-1.9-1.8-4-2.3-6.2c-0.5-2.2-0.7-4.4-0.7-6.4c0-2.3,0.3-4.8,1-7.6c0.6-2.7,1.6-5.2,2.9-7.6c1.3-2.3,3-4.3,5.1-5.8
		c2.1-1.5,4.5-2.3,7.4-2.3c1.8,0,3.3,0.4,4.6,1.2c1.3,0.8,2.4,1.8,3.2,3c0.8,1.3,1.5,2.7,1.9,4.2c0.4,1.6,0.6,3.1,0.6,4.6
		c0,0.2,0,0.5,0,0.7C749.1,131.7,749.1,131.9,749.1,132.2z"/>
	<path class="st4" d="M781.9,148.8c0,0.8,0,1.9-0.1,3.2c-0.1,1.3-0.3,2.6-0.6,3.9c-0.3,1.3-0.8,2.3-1.5,3.2
		c-0.7,0.9-1.6,1.4-2.9,1.4c-1.7,0-3-0.5-3.9-1.6c-0.9-1.1-1.3-2.5-1.3-4.1c-1.5,1.3-3.1,2.3-5,3c-1.8,0.7-3.7,1.1-5.6,1.1
		c-1.3,0-2.6-0.3-3.8-1c-1.2-0.6-2.2-1.5-3.1-2.5c-0.9-1-1.6-2.1-2.2-3.4c-0.5-1.3-0.8-2.5-0.8-3.7c0-2.2,0.7-4.1,2-5.7
		c1.3-1.6,3-3,5-4.2c2-1.2,4-2.1,6.3-2.8c2.2-0.7,4.2-1.1,5.9-1.4c0-0.2,0-0.4,0-0.6c0-0.2,0-0.4,0-0.6c0-1.4-0.4-2.6-1.2-3.4
		c-0.8-0.9-1.9-1.3-3.3-1.3c-1.1,0-2.1,0.2-2.9,0.6c-0.8,0.4-1.6,0.8-2.3,1.3c-0.7,0.5-1.5,0.9-2.2,1.3c-0.7,0.4-1.5,0.6-2.5,0.6
		c-1,0-1.9-0.3-2.6-1c-0.7-0.6-1.1-1.5-1.1-2.5c0-1.5,0.4-2.9,1.3-4.1c0.9-1.2,2-2.3,3.4-3.1c1.3-0.8,2.8-1.5,4.4-2
		c1.6-0.5,3-0.7,4.3-0.7c1.2,0,2.5,0.1,3.7,0.4c1.2,0.3,2.4,0.8,3.5,1.4c1.1,0.6,2.1,1.4,3,2.3c0.9,0.9,1.6,1.9,2.2,3.1
		c0.8,1.7,1.5,3.5,2,5.4c0.5,1.9,0.9,3.8,1.2,5.8s0.5,4,0.5,5.9C781.9,145,781.9,146.9,781.9,148.8z M771,146.6l-0.2-4.6
		c-0.1,0-0.2,0-0.3,0c-0.1,0-0.2,0-0.3,0c-0.6,0-1.3,0.1-2.2,0.4c-0.9,0.3-1.7,0.7-2.6,1.2c-0.8,0.5-1.5,1.1-2.1,1.7
		c-0.6,0.6-0.9,1.3-0.9,2c0,0.6,0.2,1.1,0.7,1.3c0.5,0.2,1,0.3,1.6,0.3c1,0,2.1-0.3,3.2-0.8C769.1,147.6,770.1,147.1,771,146.6z"/>
	<path class="st4" d="M441.9,202c0,3.1-0.8,6-2.3,8.6c-1.5,2.6-3.6,4.7-6.2,6.5c1.4,0.3,2.6,0.7,3.6,1.4c1,0.7,1.8,1.5,2.5,2.4
		c0.7,1,1.2,2,1.5,3.2c0.3,1.2,0.5,2.5,0.5,3.8c0,2.6-0.6,4.9-1.8,6.8c-1.2,1.9-2.8,3.5-4.7,4.8c-1.9,1.3-4,2.2-6.4,2.8
		c-2.3,0.6-4.7,0.9-7,0.9c-1.3,0-2.6-0.1-3.8-0.3c-1.3-0.2-2.5-0.5-3.6-1c-0.4-0.1-0.8-0.7-1-1.7c-0.3-1-0.5-2.2-0.6-3.6
		c-0.2-1.4-0.3-2.9-0.4-4.6c-0.1-1.6-0.2-3.2-0.2-4.7c0-1.5-0.1-2.8-0.1-4c0-1.1,0-1.9,0-2.4c0-1.6,0-3.2,0-4.8s0-3.2,0.1-4.8
		c0-0.4,0-1,0-1.9c0-0.9,0-1.8,0.1-2.9c0-1.1,0.1-2.2,0.1-3.4c0.1-1.2,0.2-2.3,0.3-3.3c0.1-1,0.3-1.9,0.5-2.6
		c0.2-0.7,0.4-1.2,0.7-1.4c1-0.7,2.2-1.3,3.5-1.9c1.3-0.6,2.6-1.2,4-1.6c1.4-0.5,2.7-0.8,4.1-1.1c1.4-0.3,2.7-0.4,3.9-0.4
		c1.7,0,3.3,0.2,4.9,0.7c1.6,0.5,2.9,1.2,4.1,2.2c1.2,1,2.1,2.1,2.8,3.5C441.6,198.7,441.9,200.3,441.9,202z M430.6,205.7
		c0-0.8-0.2-1.3-0.7-1.7c-0.5-0.4-1.1-0.5-1.9-0.5c-0.6,0-1.3,0.1-2,0.4c-0.7,0.3-1.3,0.6-1.8,1.1c-0.1,0.1-0.3,0.5-0.4,1.2
		c-0.1,0.6-0.2,1.4-0.3,2.2c-0.1,0.8-0.1,1.5-0.1,2.3c0,0.7,0,1.2,0,1.4c0,0.1,0,0.2,0,0.4s0,0.4,0,0.6c0,0.2,0.1,0.4,0.1,0.6
		c0,0.2,0.1,0.3,0.2,0.3c0.8,0,1.6-0.3,2.4-0.9c0.8-0.6,1.6-1.3,2.2-2.1c0.7-0.8,1.2-1.7,1.6-2.7
		C430.3,207.2,430.6,206.4,430.6,205.7z M430.3,225.4c0-0.8-0.3-1.3-0.8-1.6c-0.5-0.3-1.2-0.5-1.8-0.5c-0.6,0-1.3,0.1-2,0.4
		c-0.7,0.3-1.3,0.6-1.7,1.1c-0.1,0.1-0.2,0.3-0.3,0.7c-0.1,0.4-0.1,0.8-0.1,1.2c0,0.4,0,0.8-0.1,1.2c0,0.4,0,0.6,0,0.8
		c0,0.1,0,0.3,0,0.5s0,0.6,0,0.9c0,0.3,0.1,0.6,0.1,0.8c0.1,0.3,0.1,0.4,0.2,0.4c0.6,0,1.3-0.2,2.1-0.5c0.8-0.4,1.5-0.8,2.2-1.4
		c0.7-0.5,1.2-1.2,1.6-1.9C430.1,226.8,430.3,226.1,430.3,225.4z"/>
	<path class="st4" d="M468.7,216.9c-0.6,0-1.2,0-1.6-0.2c-0.5-0.2-0.9-0.3-1.4-0.5c-0.4-0.2-0.8-0.4-1.2-0.5
		c-0.4-0.2-0.9-0.2-1.4-0.2c-0.9,0-1.7,0.3-2.4,0.8c-0.7,0.5-1.3,1-1.9,1.7c-0.6,0.7-1.1,1.4-1.5,2.3c-0.4,0.8-0.7,1.7-1,2.5
		c-0.1,0.5-0.2,1.4-0.3,2.5c-0.1,1.1-0.1,2.3-0.1,3.6c0,1.3-0.1,2.6-0.1,3.8c0,1.2,0,2.1-0.1,2.8c0,0.7-0.2,1.6-0.3,2.6
		c-0.2,1-0.5,1.9-0.9,2.8c-0.4,0.9-0.9,1.6-1.5,2.2c-0.6,0.6-1.5,0.9-2.5,0.9c-0.8,0-1.4-0.2-2-0.7c-0.6-0.5-1-1.1-1.4-1.8
		c-0.4-0.8-0.7-1.6-1-2.6c-0.3-1-0.4-2-0.6-3.1c-0.1-1.1-0.2-2.2-0.3-3.3c-0.1-1.1-0.1-2.1-0.1-3.1c0-1,0-1.9,0-2.7c0-0.8,0-1.5,0-2
		c0-1.6-0.1-3.2-0.2-4.8c-0.1-1.6-0.2-3.2-0.2-4.8c0-1,0-2.1,0.1-3.3c0.1-1.2,0.3-2.4,0.8-3.5s1-2,1.8-2.7c0.8-0.7,1.9-1.1,3.3-1.1
		c0.8,0,1.4,0.3,2,0.8c0.5,0.5,1,1.1,1.3,1.8c0.3,0.7,0.6,1.5,0.8,2.3c0.2,0.8,0.3,1.6,0.3,2.3c1.1-1.8,2.3-3.2,3.7-4.3
		c1.4-1.1,3.1-1.7,5.3-1.8c1.1,0,2.2,0.1,3.2,0.3c1.1,0.3,2.1,0.7,2.9,1.2c0.9,0.6,1.6,1.3,2.2,2.2c0.6,0.9,0.9,2,0.9,3.2
		c0.1,1.5-0.3,2.6-1.3,3.4C471.2,216.4,470.1,216.8,468.7,216.9z"/>
	<path class="st4" d="M503.6,232.8c0,0.8,0,1.9-0.1,3.2c-0.1,1.3-0.3,2.6-0.6,3.9c-0.3,1.3-0.8,2.3-1.5,3.2s-1.6,1.4-2.9,1.4
		c-1.7,0-3-0.5-3.9-1.6c-0.9-1.1-1.3-2.5-1.3-4.1c-1.5,1.3-3.1,2.3-5,3c-1.8,0.7-3.7,1.1-5.6,1.1c-1.3,0-2.6-0.3-3.8-1
		c-1.2-0.6-2.2-1.5-3.1-2.5c-0.9-1-1.6-2.1-2.2-3.4c-0.5-1.3-0.8-2.5-0.8-3.7c0-2.2,0.7-4.1,2-5.7c1.3-1.6,3-3,5-4.2
		c2-1.2,4-2.1,6.3-2.8c2.2-0.7,4.2-1.1,5.9-1.4c0-0.2,0-0.4,0-0.6c0-0.2,0-0.4,0-0.6c0-1.4-0.4-2.6-1.2-3.4
		c-0.8-0.9-1.9-1.3-3.3-1.3c-1.1,0-2.1,0.2-2.9,0.6c-0.8,0.4-1.6,0.8-2.3,1.3c-0.7,0.5-1.5,0.9-2.2,1.3c-0.7,0.4-1.5,0.6-2.5,0.6
		c-1,0-1.9-0.3-2.6-1c-0.7-0.6-1.1-1.5-1.1-2.5c0-1.5,0.4-2.9,1.3-4.1c0.9-1.2,2-2.3,3.4-3.1c1.3-0.8,2.8-1.5,4.4-2
		c1.6-0.5,3-0.7,4.3-0.7c1.2,0,2.5,0.1,3.7,0.4c1.2,0.3,2.4,0.8,3.5,1.4c1.1,0.6,2.1,1.4,3,2.3c0.9,0.9,1.6,1.9,2.2,3.1
		c0.8,1.7,1.5,3.5,2,5.4c0.5,1.9,0.9,3.8,1.2,5.8c0.3,2,0.5,4,0.5,5.9C503.5,229,503.6,230.9,503.6,232.8z M492.6,230.6l-0.2-4.6
		c-0.1,0-0.2,0-0.3,0c-0.1,0-0.2,0-0.3,0c-0.6,0-1.3,0.1-2.2,0.4c-0.9,0.3-1.7,0.7-2.6,1.2c-0.8,0.5-1.5,1.1-2.1,1.7
		c-0.6,0.6-0.9,1.3-0.9,2c0,0.6,0.2,1.1,0.7,1.3c0.5,0.2,1,0.3,1.6,0.3c1,0,2.1-0.3,3.2-0.8C490.8,231.6,491.8,231.1,492.6,230.6z"
		/>
	<path class="st4" d="M527.7,204.8c0,1.3-0.4,2.3-1.3,2.9c-0.9,0.6-1.9,1.2-3,1.8c-1.1,0.6-2.1,1.2-3,2s-1.3,1.9-1.3,3.5
		c0,0.8,0.2,1.5,0.6,2.1c0.4,0.6,0.9,1.1,1.4,1.6c0.6,0.5,1.2,1,1.9,1.5c0.7,0.5,1.3,1.1,1.9,1.7c0.6,0.6,1,1.4,1.4,2.3
		c0.4,0.9,0.6,2,0.6,3.4c0,1.9-0.5,3.8-1.5,5.6c-1,1.8-2.2,3.5-3.8,4.9c-1.5,1.4-3.2,2.6-5.2,3.5c-1.9,0.9-3.8,1.3-5.7,1.3
		c-0.8,0-1.5-0.1-2.3-0.2c-0.8-0.1-1.5-0.3-2.1-0.6s-1.1-0.8-1.5-1.3s-0.6-1.3-0.6-2.2c0-1.3,0.3-2.3,0.8-3c0.5-0.7,1.1-1.3,1.9-1.7
		s1.6-0.7,2.5-1c0.9-0.2,1.7-0.5,2.5-0.9c0.8-0.3,1.4-0.8,1.9-1.3c0.5-0.5,0.8-1.3,0.8-2.3c0-1-0.4-1.9-1.1-3
		c-0.8-1-1.6-2.1-2.5-3.3c-0.9-1.2-1.7-2.4-2.5-3.7c-0.8-1.3-1.1-2.8-1.1-4.4c0-2,0.4-3.8,1.2-5.4c0.8-1.7,1.9-3.1,3.2-4.3
		c1.3-1.2,2.9-2.2,4.6-2.9c1.7-0.7,3.6-1.1,5.5-1.1c0.7,0,1.4,0.1,2.2,0.2c0.7,0.1,1.3,0.4,1.9,0.7c0.5,0.3,1,0.8,1.3,1.4
		C527.5,203.3,527.7,204,527.7,204.8z"/>
	<path class="st4" d="M542.3,218c0,0.6,0,1.3,0,2c0,0.7,0,1.4-0.1,2c0,0.8-0.1,1.8-0.1,3.1c0,1.3,0,2.7-0.1,4.2
		c-0.1,1.5-0.2,3-0.4,4.6s-0.5,3-1,4.2c-0.5,1.3-1.1,2.3-1.8,3.1c-0.8,0.8-1.7,1.2-2.8,1.3c-0.9,0-1.6-0.3-2.2-1
		c-0.6-0.7-1.1-1.7-1.5-2.8c-0.4-1.2-0.7-2.5-0.9-3.9c-0.2-1.4-0.3-2.8-0.4-4.2c-0.1-1.3-0.1-2.6-0.1-3.7c0-1.1,0-2,0-2.5
		c0-0.7,0-1.8,0-3.1c0-1.3,0-2.8,0.1-4.3c0.1-1.5,0.3-3.1,0.5-4.7c0.3-1.6,0.6-3.1,1.1-4.4s1.1-2.4,1.9-3.2c0.8-0.8,1.8-1.2,2.9-1.2
		c1.2,0,2.2,0.6,2.8,1.8c0.6,1.2,1.1,2.7,1.4,4.3c0.3,1.6,0.5,3.3,0.5,4.9C542.3,216,542.3,217.2,542.3,218z M541.7,194.7
		c0,0.6-0.2,1.2-0.5,1.7c-0.3,0.5-0.8,0.9-1.3,1.3c-0.5,0.4-1.1,0.7-1.8,0.9c-0.6,0.2-1.2,0.3-1.8,0.3c-0.9,0-1.7-0.2-2.4-0.7
		c-0.7-0.5-1-1.2-1-2.1c0-0.7,0.2-1.3,0.5-1.8c0.3-0.5,0.8-1,1.3-1.3c0.5-0.3,1.1-0.6,1.7-0.8c0.6-0.2,1.3-0.3,1.8-0.3
		c0.9,0,1.7,0.2,2.4,0.6C541.4,193,541.7,193.7,541.7,194.7z"/>
	<path class="st4" d="M559.9,201c0,2.5-0.1,4.9-0.3,7.4s-0.3,5-0.3,7.5c0,3.2,0.1,6.5,0.3,9.7c0.2,3.2,0.3,6.5,0.3,9.8
		c0,0.8,0,1.7-0.1,2.8c-0.1,1-0.3,2-0.6,2.8s-0.9,1.6-1.5,2.2c-0.7,0.6-1.6,0.9-2.7,0.9c-1.1,0-2-0.5-2.8-1.6
		c-0.8-1.1-1.5-2.4-2-4.1c-0.5-1.7-1-3.5-1.3-5.6c-0.3-2.1-0.6-4-0.8-6c-0.2-1.9-0.3-3.7-0.3-5.3c-0.1-1.6-0.1-2.8-0.1-3.6
		c0-0.9,0-2.1,0.1-3.8c0.1-1.6,0.2-3.4,0.4-5.3c0.2-1.9,0.5-3.9,0.9-5.8c0.4-2,0.9-3.8,1.5-5.4s1.4-2.9,2.3-4c0.9-1,1.9-1.5,3.2-1.5
		c1,0,1.8,0.3,2.3,1c0.5,0.7,0.9,1.5,1.1,2.4c0.2,0.9,0.4,1.9,0.4,2.9C559.9,199.4,559.9,200.3,559.9,201z"/>
	<path class="st4" d="M613.7,236.2c0,1.3-0.4,2.4-1.3,3.2c-0.9,0.8-1.9,1.3-3.1,1.6c-1.4,0.3-2.9,0.6-4.6,0.9
		c-1.7,0.3-3.5,0.5-5.3,0.6s-3.6,0.3-5.3,0.4c-1.7,0.1-3.3,0.1-4.7,0.1c-0.4,0-0.9,0-1.5,0c-0.7,0-1.3-0.1-2.1-0.1
		c-0.7-0.1-1.4-0.2-2-0.3s-1.1-0.3-1.4-0.5c-0.3-0.3-0.6-0.6-0.9-1.1c-0.3-0.5-0.5-1-0.7-1.6c-0.2-0.6-0.3-1.1-0.4-1.7
		c-0.1-0.5-0.1-1-0.1-1.4c0-0.6,0.1-1.2,0.2-1.7c0.2-0.5,0.5-1,0.9-1.5c0.5-0.6,1.1-1.2,1.7-1.7c0.6-0.6,1.2-1.1,1.7-1.7
		c0.6-0.7,1.5-1.6,2.5-2.7c1-1.1,2.2-2.4,3.4-3.8c1.2-1.4,2.4-2.8,3.6-4.4c1.2-1.5,2.3-3,3.3-4.5c1-1.5,1.8-2.8,2.4-4.1
		c0.6-1.3,0.9-2.4,0.9-3.3c0-0.9-0.3-1.6-0.8-2.2c-0.5-0.6-1.2-0.9-2.1-0.9c-1,0-1.8,0.3-2.7,1c-0.8,0.7-1.6,1.4-2.5,2.2
		c-0.8,0.8-1.7,1.5-2.6,2.2c-0.9,0.7-2,1-3.2,1c-1.4,0-2.5-0.4-3.3-1.2c-0.8-0.8-1.2-1.9-1.2-3.3c0-2,0.4-3.9,1.3-5.6
		c0.9-1.7,2.1-3.2,3.5-4.4c1.5-1.2,3.1-2.2,4.9-2.9c1.8-0.7,3.7-1.1,5.6-1.1c2,0,3.8,0.2,5.5,0.7c1.7,0.5,3.1,1.2,4.4,2.1
		c1.2,1,2.2,2.2,2.9,3.7c0.7,1.5,1.1,3.3,1.1,5.4c0,1.6-0.3,3.4-0.9,5.2c-0.6,1.8-1.3,3.6-2.3,5.4c-0.9,1.8-2,3.6-3.2,5.4
		c-1.2,1.8-2.5,3.5-3.7,5.2c-1.3,1.6-2.6,3.2-3.8,4.6c-1.3,1.4-2.4,2.6-3.5,3.7c2.2-0.3,4.6-0.5,7-0.8s4.8-0.4,7.1-0.4
		c1.3,0,2.5,0.4,3.5,1.1C613.2,233.7,613.7,234.7,613.7,236.2z"/>
	<path class="st4" d="M656.8,218.7c0,3.1-0.5,6.2-1.4,9.3c-0.9,3.1-2.3,5.9-4.1,8.5c-1.8,2.5-4,4.6-6.7,6.2
		c-2.7,1.6-5.8,2.4-9.3,2.4c-3,0-5.6-0.8-8-2.3s-4.4-3.5-6.1-5.9c-1.7-2.4-2.9-5-3.8-7.9c-0.9-2.8-1.3-5.6-1.3-8.2
		c0-1.9,0.3-3.8,0.8-5.9c0.5-2.1,1.2-4.1,2.2-6.1c0.9-2,2.1-3.9,3.4-5.8c1.3-1.8,2.8-3.5,4.4-4.9c1.6-1.4,3.4-2.5,5.3-3.3
		c1.9-0.8,3.9-1.2,5.9-1.2c3.5,0,6.5,0.8,8.9,2.3c2.4,1.5,4.4,3.5,5.8,5.8s2.6,5.1,3.2,8.1C656.5,212.7,656.8,215.7,656.8,218.7z
		 M646.9,218.4c0-1.1-0.2-2.5-0.5-4c-0.3-1.5-0.8-3-1.5-4.4c-0.7-1.4-1.5-2.5-2.6-3.5s-2.3-1.4-3.8-1.4c-1.8,0-3.4,0.6-4.8,1.7
		c-1.4,1.1-2.6,2.5-3.5,4.1c-1,1.6-1.7,3.4-2.2,5.3c-0.5,1.9-0.8,3.6-0.8,5.1c0,1.2,0.2,2.5,0.5,4c0.3,1.5,0.8,2.9,1.5,4.3
		c0.7,1.3,1.6,2.5,2.6,3.4c1.1,0.9,2.3,1.4,3.8,1.4c1.8,0,3.4-0.6,4.8-1.7c1.4-1.1,2.6-2.5,3.5-4.1c0.9-1.6,1.7-3.4,2.2-5.2
		C646.7,221.5,646.9,219.8,646.9,218.4z"/>
	<path class="st4" d="M673.3,208.7c0,1.4,0,2.8-0.1,4.2c0,1.4-0.1,2.8-0.1,4.2c-0.1,2.3-0.1,4.6-0.1,6.9c0,2.3-0.1,4.6-0.2,6.9
		c0,0.8-0.1,1.8-0.1,3.1c0,1.3-0.2,2.6-0.5,3.8c-0.3,1.3-0.8,2.3-1.4,3.3c-0.6,0.9-1.5,1.4-2.7,1.4c-1.1,0-2-0.4-2.7-1.1
		s-1.2-1.7-1.6-2.9c-0.4-1.2-0.7-2.5-0.8-3.9s-0.2-2.8-0.2-4.2c0-1.4,0-2.7,0-3.9c0-1.2,0.1-2.1,0.1-2.7c0-3.1,0-6.2,0-9.3
		c0-3.1,0.1-6.2,0.1-9.3c-0.9-0.8-1.6-1.7-2.2-2.8c-0.5-1.1-0.8-2.3-0.8-3.5c0-1.9,0.6-3.5,1.7-4.8c1.1-1.3,2.7-2,4.6-2
		c1.7,0,3,0.6,4,1.9c1,1.3,1.7,2.8,2.1,4.6c0.4,1.8,0.7,3.6,0.8,5.4C673.3,206.1,673.3,207.6,673.3,208.7z"/>
	<path class="st4" d="M712.5,210.9c0,1.8-0.3,3.9-0.9,6.3c-0.6,2.4-1.5,4.8-2.5,7.2c-1.1,2.5-2.3,4.9-3.8,7.2
		c-1.4,2.4-3,4.5-4.7,6.4c-1.7,1.9-3.5,3.4-5.3,4.5c-1.8,1.1-3.7,1.7-5.6,1.7c-1,0-1.9-0.3-2.7-0.9c-0.8-0.6-1.2-1.5-1.2-2.6
		c0-0.5,0.1-0.9,0.2-1.3c0.2-0.3,0.4-0.7,0.7-1.1c1-1.3,2-2.5,3.1-3.5c1-1.1,2.1-2.1,3.1-3.2c1-1.1,2-2.2,3-3.4
		c1-1.2,1.8-2.6,2.6-4.1c-1.5,0.4-3.1,0.6-4.6,0.6c-2.3,0-4.3-0.4-6.2-1.1c-1.8-0.7-3.4-1.7-4.7-3c-1.3-1.3-2.3-2.9-2.9-4.8
		c-0.7-1.8-1-3.9-1-6.2c0-2.6,0.4-4.9,1.2-7c0.8-2.1,1.9-4,3.4-5.6c1.5-1.6,3.3-2.8,5.3-3.7c2.1-0.9,4.4-1.3,7-1.3
		c2.7,0,5.1,0.5,7.2,1.5c2.1,1,3.8,2.3,5.2,4c1.4,1.7,2.4,3.7,3.1,6C712.1,205.9,712.5,208.3,712.5,210.9z M703.4,209.6
		c0-1.1-0.1-2.2-0.4-3.2c-0.3-1-0.7-2-1.3-2.8c-0.6-0.8-1.3-1.5-2.2-2c-0.9-0.5-1.9-0.8-3.2-0.8c-2.5,0-4.4,0.8-5.8,2.3
		c-1.4,1.5-2.2,3.5-2.2,6c0,2.4,0.6,4.2,1.9,5.4c1.3,1.3,3.1,1.9,5.4,1.9c2.4,0,4.3-0.5,5.7-1.6
		C702.7,213.8,703.4,212.1,703.4,209.6z"/>
</g>
</svg>
