<svg xmlns="http://www.w3.org/2000/svg" width="355" height="343" viewBox="0 0 355.3 342.5"><style>.a{fill:#005F00;}.b{fill:#59A227;}.c{fill:#FEC100;}.d{fill:#FFF;}</style><path d="M250 261.1c22.8-11.5 58.2-60.3 60.4-105.9s-19.7-90.1-63.9-110.7 -44.5 1-41.5 9.1 63.6 89.3 54.4 121.5S250 261.1 250 261.1z" fill="#FCE900"/><path d="M54 102.7c7.5-37.9 54.3-60.2 88.1-65.1s37.4 6.5 33 10.7S54 102.7 54 102.7z" class="a"/><path d="M77.2 70.1C44.6 89.8 32.1 116.5 31 150.6s5.5 36.4 9.3 31.6S77.2 70.1 77.2 70.1z" class="a"/><path d="M60 109.8c-19 17-40.8 73.2-31.3 117.8s42.1 82 90.1 90.7c51.2 9.4 47.3-20.5 39.3-21.7 -8.6-1.3-85.9-67.8-85.2-101.3S60 109.8 60 109.8z" class="b"/><path d="M291.3 213.6c3.6 38.4-34.9 73.2-65.9 87.5s-37.7 4.5-34.7-0.9S291.3 213.6 291.3 213.6z" class="c"/><path d="M271.7 249.8c28.6-25.1 36.3-53.5 31.4-87.3s-11.8-34.8-14.6-29.5C285.6 138.4 271.7 249.8 271.7 249.8z" class="c"/><path d="M89.1 12.1c1.6 16.7-1.9 39.9-12.4 55.4 -12.5 18.6-4.5-6.8-3-11 4.4-12.6-11.5-14.6-18.4-8.5 -7.9 7-2.7 15.7-1.6 26 0.3 3.1-2.1 3.9-3.5 1.8 -9-14-11.4-18.1-7.2-29.7 9.6-26.8-2.7-28.5-8.8-11.5 -17.6 49.1 35 90.6 72.1 100.7l17.9-34.9c-19.9-14.4-24.7-43.2-21.8-68.3C105.6 3.8 86.7-12.6 89.1 12.1" class="a"/><path d="M327.9 166.5c-12.5 11.2-25.6 30.7-28.4 49.2 -3.4 22.2 7.9-1.9 9.7-6.1 5.3-12.2 18.3-3 19.2 6.2 1.1 10.5-8.6 13.4-16.4 20.2 -2.4 2.1-1 4.3 1.4 3.7 16.1-4.3 20.6-5.7 25.4-17 11-26.3 21.2-19.1 14.3-2.5 -20.2 48.1-87 43.1-121.2 25.4l10.4-37.8c24.4 2.8 47.4-15.1 62.2-35.5C321.4 149.2 346.4 149.9 327.9 166.5" class="c"/><circle cx="170.5" cy="174.3" r="127.7" fill="#002285"/><path d="M230.9 242.8l-117.8 2.3 -0.5-24.5 5.8-0.1c2.4 0 5.5-3.7 5.5-5.9l-1.6-78.1c0-2.2-3.3-5.5-5.7-5.5l-5.8 0.1 -0.5-25.5 73.7-1.5 0.5 25.5 -15.8 0.3 1.7 87.2 27.5-0.5 3.3-24.7 28.5-0.6L230.9 242.8z" class="d"/><path d="M260.4 153.4c0.3 1.3-1.8 2.7-3.5 4.2s-2.3 1.6-1.2 3.2c1 1.6 4.4 4.9 3.8 5.9s-3.8-0.9-6.5-2.1 -3.3 2.3-4.8 3.9 -2.8 1.5-3.2-0.7 0.6-3.5 0.5-5.4 -0.8-1.1-2.8-2.1 -4.2-2.5-3.6-3.4 2.1-0.6 5.7-1.2c1.1-0.2 2.1-2.1 2.1-5.1s1.8-4 2.3-2.3 1.4 4.8 2.6 5.6 1.7 0.2 4.4-0.7C258.7 152.3 260.2 152.8 260.4 153.4M240.9 115.7c3.2-3.5 2.5-9.7 4.7-8.9 2.6 1 2.4 3.9 3.3 7.1 0.5 1.8 1.6 2.8 4.3 3 2.8 0.2 3.7 0.5 4.6 1 1.4 0.8-0.8 2-4 3 -2.5 0.8-3.9 1.2-3.1 4.4 0.8 3.2 2.3 5.8 2 7.9s-2.3-0.1-4-2.9c-1.8-2.9-3.5-4.9-4.8-3.9 -3.3 2.4-3.3 4.1-5.1 4.7 -1.4 0.4-2.2-0.2-1.7-2.2 1-4 3.7-5.4 0.9-7.5s-4.8-2.2-5.9-4.8S239.2 117.6 240.9 115.7M203 142c0.9-1 2.6-0.3 6.9-0.2 1.3 0 2.9-2 3.5-5.5s3-4.2 3.2-2.1 0.6 5.9 1.8 7 2 0.6 5.3 0.2c3-0.4 4.8 0.6 4.8 1.3 0 1.6-2.7 2.7-5 4.1s-3 1.4-2.1 3.5 4.1 6.7 3.2 7.7 -4.2-1.8-7-3.9 -4.4 2-6.4 3.5 -3.5 1.1-3.6-1.6 1.5-4 1.8-6.1 -0.7-1.5-2.8-3S202.1 143 203 142" class="d"/><path d="M186.3 329.1c3.6-2 6.3-1.9 8-4.9s-8.7 0-10.6-2.6c-3.4-4.8-1.5-12.3-4.3-11.6 -3.3 0.8-3.5 4.4-5.2 8.2 -0.9 2.1-2.4 3.2-5.8 3s-4.6 0-5.8 0.5c-1.8 0.8 0.7 2.5 4.4 4.4 2.9 1.4 4.6 2.1 3.1 5.9s-3.7 6.7-3.7 9.4 2.8 0.2 5.3-2.8c2.7-3.3 5-5.4 6.5-4 3.6 3.5 3.4 5.5 5.5 6.5 1.7 0.8 2.7 0.1 2.4-2.5C185.6 333.4 182.5 331.2 186.3 329.1" class="c"/><path d="M130.2 342.1c6.3-0.6 6.1-3.5 0.1-4 -29.7-3.8-57.3-17.3-78.7-38.3 -2.1-2-4.1-4.1-5.9-6.3l-2.5-2.8c-0.7-0.9-1.4-1.8-2-2.6l-3.2-3.9c-0.8-1-1.3-1.8-1.7-2.2 -1.3-1.6-2.8-2.9-4.5-3.9 -1.6-1.1-3.3-1.9-5.1-2.4 -3.5-1.1-7.2-0.6-10.3 1.2 -3 1.9-4.6 5.3-4.7 9.3 0 2.2 0.4 4.3 1.1 6.3 0.9 2.2 2.2 4.3 3.7 6.2 0.4 0.5 1.1 1.4 2.3 2.5l4.5 4.1 2.9 2.6 3.5 2.7c2.5 1.9 5.1 4.1 8.2 6 13.9 9.5 29.3 16.5 45.6 20.8C98.7 341.6 114.5 343.2 130.2 342.1" fill="#FD2D3F"/><path d="M25.6 250.9c-2.2-5.6-3.8-11.3-5-17.1 -1-5-1.7-8.8-2-9.7 -1.2-3.4-6.3-4.8-11.3-3.1s-8.2 6-7 9.5c1.5 3.2 3.2 6.4 5.1 9.4 3.4 5.8 7.5 11.3 12 16.3 4.3 4.8 9.4 8.8 15 12 1.8 1 3.7 1.9 5.6 2.6 1.4 0.5 1.5 0.2 0.4-0.7 -1.4-1.3-2.8-2.7-4-4.2C30.7 261.4 27.8 256.3 25.6 250.9" class="c"/><path d="M215.3 23.6c-6.3 0.6-6.1 3.5-0.1 4 29.7 3.8 57.3 17.3 78.7 38.3 2.3 2.1 4.2 4.3 5.9 6.3l2.5 2.8c0.7 0.9 1.4 1.8 2 2.6l3.1 3.9c0.8 1.1 1.3 1.8 1.7 2.2 2.5 3 5.9 5.2 9.6 6.3 3.5 1.1 7.2 0.6 10.3-1.2 3-1.9 4.7-5.3 4.7-9.3 0-2.2-0.3-4.3-1.1-6.3 -0.9-2.2-2.2-4.3-3.7-6.2 -0.4-0.5-1.1-1.4-2.3-2.5l-4.5-4.1 -2.9-2.6 -3.5-2.8c-2.5-1.9-5.1-4.1-8.2-6 -13.9-9.5-29.3-16.5-45.6-20.8C246.8 24 231 22.5 215.3 23.6" fill="#7B3885"/><path d="M316.6 115.4c1.5 5.8 2.6 11.7 3.1 17.6 0.5 5.1 0.7 9 0.9 9.8 0.8 3.5 5.7 5.5 11 4.3s8.8-5 8-8.7c-1.2-3.4-2.5-6.7-4.1-9.9 -2.8-6.2-6.2-12-10.2-17.5 -3.8-5.2-8.4-9.8-13.6-13.6 -1.7-1.2-3.4-2.2-5.2-3.2 -1.3-0.6-1.5-0.4-0.5 0.7 1.3 1.5 2.5 3 3.6 4.7C312.6 104.4 315 109.8 316.6 115.4" class="b"/></svg>